<svg width="100" height="100" viewBox="0 0 100 100" xmlns="http://www.w3.org/2000/svg">
  <defs>
    <linearGradient id="board" x1="0" y1="0" x2="1" y2="1">
      <stop offset="0" stop-color="#4573DF"/>
      <stop offset="1" stop-color="#3458BA"/>
    </linearGradient>
  </defs>

  <!-- Book: slight curve on outer edges for realism -->
  <path d="M28,66 Q28,64 30,64 L48,64 L48,77 Q48,78 47,78 L30,78 Q28,78 28,76 Z" fill="#10B981"/>
  <rect x="48.5" y="63" width="3" height="16" rx="0.8" fill="#047857"/>
  <path d="M52,64 L70,64 Q72,64 72,66 L72,76 Q72,78 70,78 L53,78 Q52,78 52,77 Z" fill="#059669"/>

  <!-- Cap band: tapered for perspective -->
  <path d="M36,49 L64,49 L65.5,56 Q65.5,61 62,61 L38,61 Q34.5,61 34.5,56 Z" fill="#2B52B5"/>

  <!-- Mortarboard -->
  <path d="M50,18 L88,36 L50,54 L12,36 Z" fill="url(#board)"/>

  <!-- Button -->
  <circle cx="50" cy="36" r="3.2" fill="#F59E0B"/>

  <!-- Tassel: natural draping curve -->
  <path d="M53,38.5 C60,38 68,41 72,46" fill="none" stroke="#F59E0B" stroke-width="2" stroke-linecap="round"/>
  <circle cx="72" cy="46" r="2.3" fill="#FBBF24"/>
  <path d="M70.5,48.5 C70,54 69.5,60 70,68" fill="none" stroke="#F59E0B" stroke-width="1.4" stroke-linecap="round"/>
  <path d="M73.5,48.5 C74,55 74.5,62 73.8,71" fill="none" stroke="#FBBF24" stroke-width="1.4" stroke-linecap="round"/>
</svg>
