<svg width="100" height="100" viewBox="0 0 100 100" xmlns="http://www.w3.org/2000/svg">
  <!-- Book -->
  <rect x="29" y="65" width="20" height="12" rx="2" fill="#FFF" opacity="0.45"/>
  <rect x="49" y="64" width="2" height="14" rx="0.5" fill="#FFF" opacity="0.3"/>
  <rect x="51" y="65" width="20" height="12" rx="2" fill="#FFF" opacity="0.45"/>

  <!-- Cap band -->
  <path d="M38,50 L62,50 L63,57 Q63,62 60,62 L40,62 Q37,62 37,57 Z" fill="#FFF" opacity="0.35"/>

  <!-- Mortarboard -->
  <path d="M50,20 L87,37 L50,54 L13,37 Z" fill="#FFFFFF"/>

  <!-- Button -->
  <circle cx="50" cy="37" r="3.5" fill="#FFF" opacity="0.8"/>

  <!-- Tassel -->
  <path d="M53.5,39 C62,38.5 70,42 73,47" fill="none" stroke="#FFF" stroke-width="2" stroke-linecap="round" stroke-opacity="0.85"/>
  <circle cx="73" cy="47" r="2.5" fill="#FFF" opacity="0.75"/>
  <path d="M71.5,49.5 Q70.5,57 70.5,66" fill="none" stroke="#FFF" stroke-width="1.5" stroke-linecap="round" stroke-opacity="0.65"/>
  <path d="M74,49.5 Q74.5,57 74,69" fill="none" stroke="#FFF" stroke-width="1.5" stroke-linecap="round" stroke-opacity="0.65"/>
</svg>
