<svg width="300" height="80" viewBox="0 0 300 80" xmlns="http://www.w3.org/2000/svg">
  <defs>
    <linearGradient id="board" x1="0" y1="0" x2="1" y2="1">
      <stop offset="0" stop-color="#4573DF"/>
      <stop offset="1" stop-color="#3458BA"/>
    </linearGradient>
  </defs>

  <g transform="translate(6, 6) scale(0.68)">
    <!-- Open book -->
    <path d="M50,63 C44,63.5 32,64 27,66 L27,78 C32,76 44,75.5 50,76 Z" fill="#10B981"/>
    <path d="M33,70 C38,69 44,68.8 48,69" fill="none" stroke="#FFF" stroke-width="0.5" stroke-opacity="0.3"/>
    <path d="M35,73 C40,72 44,71.8 48,72" fill="none" stroke="#FFF" stroke-width="0.5" stroke-opacity="0.3"/>
    <path d="M50,63 C56,63.5 68,64 73,66 L73,78 C68,76 56,75.5 50,76 Z" fill="#059669"/>
    <path d="M52,69 C56,68.8 62,69 67,70" fill="none" stroke="#FFF" stroke-width="0.5" stroke-opacity="0.3"/>
    <path d="M52,72 C56,71.8 60,72 65,73" fill="none" stroke="#FFF" stroke-width="0.5" stroke-opacity="0.3"/>
    <path d="M50,63 L50,76" stroke="#047857" stroke-width="1.5" stroke-linecap="round"/>

    <!-- Cap band -->
    <path d="M36,49 L64,49 L65.5,56 Q65.5,61 62,61 L38,61 Q34.5,61 34.5,56 Z" fill="#2B52B5"/>

    <!-- Mortarboard -->
    <path d="M50,18 L88,36 L50,54 L12,36 Z" fill="url(#board)"/>

    <!-- Button -->
    <circle cx="50" cy="36" r="3.2" fill="#F59E0B"/>

    <!-- Tassel -->
    <path d="M53,38.5 C60,38 68,41 72,46" fill="none" stroke="#F59E0B" stroke-width="2" stroke-linecap="round"/>
    <circle cx="72" cy="46" r="2.3" fill="#FBBF24"/>
    <path d="M70.5,48.5 C70,54 69.5,58 70,64" fill="none" stroke="#F59E0B" stroke-width="1.4" stroke-linecap="round"/>
    <path d="M73.5,48.5 C74,55 74.5,60 73.8,67" fill="none" stroke="#FBBF24" stroke-width="1.4" stroke-linecap="round"/>
  </g>

  <text x="92" y="43" dominant-baseline="central"
        font-family="Arial, Helvetica, sans-serif"
        font-size="34" font-weight="800" letter-spacing="-0.5">
    <tspan fill="#1F2937">Pak</tspan><tspan fill="#4573DF">Uni</tspan>
  </text>

  <text x="93" y="61"
        font-family="Arial, Helvetica, sans-serif"
        font-size="10" fill="#9CA3AF" font-weight="400" letter-spacing="0.8">
    Your Gateway to Pakistani Universities
  </text>
</svg>
