<svg width="200" height="260" viewBox="0 0 200 260" xmlns="http://www.w3.org/2000/svg">
  <defs>
    <linearGradient id="board" x1="0" y1="0" x2="1" y2="1">
      <stop offset="0" stop-color="#4573DF"/>
      <stop offset="1" stop-color="#3660C9"/>
    </linearGradient>
  </defs>

  <g transform="translate(50, 15)">
    <!-- Book -->
    <rect x="29" y="65" width="20" height="12" rx="2" fill="#10B981"/>
    <rect x="49" y="64" width="2" height="14" rx="0.5" fill="#047857"/>
    <rect x="51" y="65" width="20" height="12" rx="2" fill="#059669"/>

    <!-- Cap band -->
    <path d="M38,50 L62,50 L63,57 Q63,62 60,62 L40,62 Q37,62 37,57 Z" fill="#2B52B5"/>

    <!-- Mortarboard -->
    <path d="M50,20 L87,37 L50,54 L13,37 Z" fill="url(#board)"/>

    <!-- Button -->
    <circle cx="50" cy="37" r="3.5" fill="#F59E0B"/>

    <!-- Tassel -->
    <path d="M53.5,39 C62,38.5 70,42 73,47" fill="none" stroke="#F59E0B" stroke-width="2" stroke-linecap="round"/>
    <circle cx="73" cy="47" r="2.5" fill="#FBBF24"/>
    <path d="M71.5,49.5 Q70.5,57 70.5,66" fill="none" stroke="#F59E0B" stroke-width="1.5" stroke-linecap="round"/>
    <path d="M74,49.5 Q74.5,57 74,69" fill="none" stroke="#FBBF24" stroke-width="1.5" stroke-linecap="round"/>
  </g>

  <text x="100" y="198" text-anchor="middle"
        font-family="Arial, Helvetica, sans-serif"
        font-size="48" font-weight="800" letter-spacing="-0.8">
    <tspan fill="#1F2937">Pak</tspan><tspan fill="#4573DF">Uni</tspan>
  </text>

  <text x="100" y="224" text-anchor="middle"
        font-family="Arial, Helvetica, sans-serif"
        font-size="12.5" fill="#9CA3AF" font-weight="400" letter-spacing="1">
    Your Gateway to Pakistani Universities
  </text>
</svg>
